<svg width="16" height="20" viewBox="0 0 16 20" fill="none" xmlns="http://www.w3.org/2000/svg">
<path fill-rule="evenodd" clip-rule="evenodd" d="M0.800049 2.80002C0.800049 1.47454 1.87457 0.400024 3.20005 0.400024H8.70299C9.33951 0.400024 9.94996 0.652881 10.4 1.10297L14.4971 5.20002C14.9472 5.65011 15.2 6.26056 15.2 6.89708V17.2C15.2 18.5255 14.1255 19.6 12.8 19.6H3.20005C1.87456 19.6 0.800049 18.5255 0.800049 17.2V2.80002ZM3.20005 10C3.20005 9.33728 3.73731 8.80002 4.40005 8.80002H11.6C12.2628 8.80002 12.8 9.33728 12.8 10C12.8 10.6628 12.2628 11.2 11.6 11.2H4.40005C3.73731 11.2 3.20005 10.6628 3.20005 10ZM4.40005 13.6C3.73731 13.6 3.20005 14.1373 3.20005 14.8C3.20005 15.4628 3.73731 16 4.40005 16H11.6C12.2628 16 12.8 15.4628 12.8 14.8C12.8 14.1373 12.2628 13.6 11.6 13.6H4.40005Z" fill="#0062FF"/>
</svg>
